<?xml version="1.0" standalone="no"?><!DOCTYPE svg PUBLIC "-//W3C//DTD SVG 1.1//EN" "http://www.w3.org/Graphics/SVG/1.1/DTD/svg11.dtd"><svg class="icon" height="512" viewBox="0 0 1024 1024" version="1.1" xmlns="http://www.w3.org/2000/svg"><path d="M397.859403 588.707033c8.18338 11.010775 42.339294 46.660716 100.110045 46.660716 55.509245 0 88.966241-32.292474 98.778724-44.998867-3.759627-12.403494-4.192485-30.197766 4.321422-56.040341l-0.296759 0c55.740512-57.402361 98.345866-149.829424 98.345866-240.792135 0-139.884934-93.025697-213.18538-201.115484-213.18538-108.157325 0-200.648856 73.300446-200.648856 213.18538 0 91.330078 42.369993 184.121438 98.445126 241.390769C404.878261 558.740534 403.216411 576.068178 397.859403 588.707033zM633.498168 621.466134c0 0-33.299407 85.909625-77.313853 136.00865-22.335704-43.823088-46.885843-81.041758-60.301388-81.041758-13.077853 0-36.605709 35.70827-58.406225 78.250178-43.162032-50.847062-75.734892-134.74589-75.734892-134.74589l0.231267-0.231267C250.692622 661.244093 124.376729 733.948975 124.376729 805.78507c0 19.888979 0 7.849782 0 27.606755 0 100.372012 194.593953 123.190717 374.689704 123.190717 180.361811 0 372.496759-22.817682 372.496759-123.190717 0-19.755949 0-7.717775 0-27.606755C871.562169 732.88269 748.473783 661.809981 633.498168 621.466134z" /></svg>